<?xml version="1.0" encoding="UTF-8"?>
<svg xmlns="http://www.w3.org/2000/svg" width="160" height="26" viewBox="0 0 160 26"><g><g><g><path fill="#e5e9ec" d="M87.087 20.433c0-1.092-.45-1.906-.943-2.334-.45.235-1.585.728-3.213.728-3.855 0-6.661-2.442-6.661-6.062 0-3.684 2.827-6.083 6.726-6.083.985 0 2.163.279 2.934.557.493-.6 1.713-1.799 4.07-1.799v2.763h-.3c-.6 0-1.457.107-1.885.428C89.1 9.767 89.7 11.245 89.7 12.744c0 1.478-.493 2.763-1.478 3.855.492.493 1.799 1.8 1.799 3.77 0 2.913-2.163 5.248-7.004 5.248-2.742 0-6.383-1.328-6.383-3.791 0-1.114.771-1.928 1.885-1.928 1.157 0 1.756.878 1.756 1.713 0 .343-.107.6-.192.707.385.429 1.37.836 3.041.836 2.228 0 3.963-.986 3.963-2.72m-.353-7.674c0-1.989-1.284-3.572-3.743-3.572-2.418 0-3.765 1.562-3.765 3.572s1.347 3.594 3.765 3.594c2.417 0 3.743-1.626 3.743-3.594"/></g><g><path fill="#e5e9ec" d="M14.61 13.406c0 4.026-3.064 6.725-7.24 6.725-4.177 0-7.24-2.699-7.24-6.725 0-4.07 3.041-6.726 7.24-6.726 4.22 0 7.24 2.677 7.24 6.726m-3 0c0-2.4-1.649-4.22-4.262-4.22-2.613 0-4.262 1.82-4.262 4.22 0 2.377 1.65 4.305 4.262 4.305 2.635 0 4.263-1.928 4.263-4.305"/></g><g><path fill="#e5e9ec" d="M22.088 17.284l2.913.385v2.057h-7.668v-2.057l1.82-.385V9.659l-2.163-.407V7.11l4.07-.193.62 2.656c1.479-1.928 3.15-2.913 4.692-2.913 1.156 0 2.527.664 2.527 2.399 0 1.07-.857 2.013-1.97 2.013-1.029 0-1.607-.728-1.607-1.713v-.107c-.6 0-2.42 1.178-3.234 3.234v4.798z"/></g><g><path fill="#e5e9ec" d="M38.553 2.442V.236L43.608 0v17.307l2.1.385v2.056h-3.706l-.707-1.563c-.835.878-2.42 1.992-4.755 1.992-3.813 0-6.49-2.55-6.49-6.469 0-3.898 3.17-7.004 7.368-7.004 1.114 0 2.485.279 3.256.557V2.763zm2.11 7.282c-.855-.385-1.69-.557-2.716-.557-3.016 0-4.92 1.864-4.92 4.413 0 2.42 1.476 4.09 3.958 4.09 2.01 0 3.272-1.156 3.679-1.649z"/></g><g><path fill="#e5e9ec" d="M60.204 18.716c-.556.343-2.484 1.435-5.59 1.435-4.198 0-6.854-2.592-6.854-6.618 0-3.92 2.613-6.833 6.726-6.833 4.498 0 6.19 2.956 6.19 5.869a6.34 6.34 0 0 1-.3 1.97h-9.724c.17 2.057 1.713 3.17 4.155 3.17 1.992-.021 3.534-.6 4.284-.985zm-2.227-6.722c0-1.136-.771-2.808-3.491-2.808-2.078 0-3.663 1.115-3.877 3.044h7.346c.022-.064.022-.15.022-.236z"/></g><g><path fill="#e5e9ec" d="M68.288 17.284l2.913.385v2.057h-7.668v-2.057l1.82-.385V9.659l-2.163-.407V7.11l4.07-.193.62 2.656c1.479-1.928 3.15-2.913 4.692-2.913 1.156 0 2.527.664 2.527 2.399 0 1.07-.857 2.013-1.97 2.013-1.029 0-1.607-.728-1.607-1.713v-.107c-.6 0-2.42 1.178-3.234 3.234v4.798z"/></g><g><path fill="#e5e9ec" d="M97.888 17.284l2.913.385v2.057h-7.668v-2.057l1.82-.385V9.659l-2.163-.407V7.11l4.07-.193.62 2.656c1.479-1.928 3.15-2.913 4.692-2.913 1.156 0 2.527.664 2.527 2.399 0 1.07-.857 2.013-1.97 2.013-1.029 0-1.607-.728-1.607-1.713v-.107c-.6 0-2.42 1.178-3.234 3.234v4.798z"/></g><g><path fill="#e5e9ec" d="M139.608 9.21v-2.1h6.383v2.1l-1.777.385-4.841 10.174h-2.977l-4.948-10.174-1.778-.386V7.11h6.683v2.1l-1.757.299 2.55 5.547c.32.707.727 1.714.877 2.292.193-.6.579-1.585.857-2.227l2.506-5.59z"/></g><g><path fill="#e5e9ec" d="M159.404 18.716c-.556.343-2.484 1.435-5.59 1.435-4.198 0-6.854-2.592-6.854-6.618 0-3.92 2.613-6.833 6.726-6.833 4.498 0 6.19 2.956 6.19 5.869a6.34 6.34 0 0 1-.3 1.97h-9.724c.17 2.057 1.713 3.17 4.155 3.17 1.992-.021 3.534-.6 4.284-.985zm-2.225-6.722c0-1.136-.772-2.808-3.493-2.808-2.08 0-3.665 1.115-3.88 3.044h7.352c.02-.064.02-.15.02-.236z"/></g><g><path fill="#00a7e1" d="M116.879 12.592c.214-2.121 1.799-3.792 4.22-3.792.385 0 .77.043 1.113.129 1.95.471 3.149 2.163 3.149 4.177 0 2.399-1.65 4.22-4.263 4.22a5.22 5.22 0 0 1-1.028-.108c-.578.814-1.285 1.5-2.206 1.992a8.614 8.614 0 0 0 3.234.621c4.198 0 7.24-2.656 7.24-6.725 0-3.663-2.528-6.212-6.126-6.662a9.435 9.435 0 0 0-1.114-.064c-3.984 0-6.961 2.463-7.218 6.212z"/></g><g><path fill="#00a7e1" d="M117.46 13.64c-.215 2.12-1.8 3.79-4.22 3.79a4.67 4.67 0 0 1-1.114-.128c-1.95-.47-3.149-2.163-3.149-4.176 0-2.4 1.65-4.22 4.263-4.22.342 0 .728.043 1.028.107.578-.814 1.285-1.5 2.206-1.992a8.614 8.614 0 0 0-3.234-.621c-4.198 0-7.24 2.656-7.24 6.726 0 3.662 2.527 6.211 6.126 6.66.364.044.728.065 1.114.065 3.984 0 6.96-2.463 7.218-6.211h-2.999z"/></g></g></g></svg>